/vscmnt/brussel_pixiu_data/_data_brussel/112/vsc11236/PredSimResults/SUBJ07opt3D/expIG/worker_07.mot
version=1
nRows=6
nColumns=50
inDegrees=yes
endheader
                time	         pelvis_tilt	         pelvis_list	     pelvis_rotation	           pelvis_tx	           pelvis_ty	           pelvis_tz	       hip_flexion_r	     hip_adduction_r	      hip_rotation_r	        knee_angle_r	       ankle_angle_r	         mtp_angle_r	       hip_flexion_l	     hip_adduction_l	      hip_rotation_l	        knee_angle_l	       ankle_angle_l	         mtp_angle_l	    lumbar_extension	      lumbar_bending	     lumbar_rotation	 ercspn_r/activation	 intobl_r/activation	 extobl_r/activation	    abd_r/activation	    add_r/activation	hamstrings_r/activation	bifemsh_r/activation	glut_max_r/activation	iliopsoas_r/activation	rect_fem_r/activation	  vasti_r/activation	gastroc_r/activation	 soleus_r/activation	tib_ant_r/activation	 ercspn_l/activation	 intobl_l/activation	 extobl_l/activation	    abd_l/activation	    add_l/activation	hamstrings_l/activation	bifemsh_l/activation	glut_max_l/activation	iliopsoas_l/activation	rect_fem_l/activation	  vasti_l/activation	gastroc_l/activation	 soleus_l/activation	tib_ant_l/activation	
          1.11645046	         -4.03449485	         -0.31484784	          8.18035482	          1.33974055	          0.84999365	         -0.01277992	         29.69529638	         -2.13322917	         -4.24798093	         -6.83417100	          1.90326033	          0.26796840	        -14.34048756	         -0.23547017	          3.38067024	         -9.35785353	          7.93575795	         28.21804405	        -10.43998254	         -1.47672796	         -1.27602521	          0.12152771	          0.12822261	          0.00999999	          0.01000001	          0.13621594	          0.06119431	          0.10311157	          0.08463031	          0.02974717	          0.01186074	          0.00999999	          0.00999999	          0.00999999	          0.39069492	          0.12254980	          0.00999999	          0.00999999	          0.03202727	          0.01000003	          0.01644753	          0.13069309	          0.01668538	          0.11263944	          0.01186074	          0.01056106	          0.13476575	          0.29373415	          0.01668539	
          1.12761496	         -4.04347401	         -0.28796883	          8.20282898	          1.35542139	          0.84853404	         -0.01239009	         29.44067256	         -1.92130447	         -3.96861493	         -8.22800843	          1.56994446	          0.25113361	        -14.80603023	         -0.33449419	          3.04920385	        -10.36736892	          6.96730822	         29.74084812	        -10.33373220	         -1.07852207	         -1.48300500	          0.10246207	          0.11599802	          0.00999999	          0.00999999	          0.11484597	          0.06124184	          0.12329065	          0.12552075	          0.02508034	          0.00999999	          0.00999999	          0.01406773	          0.01186074	          0.42859076	          0.13281388	          0.00999999	          0.00999999	          0.02700274	          0.02511030	          0.01386722	          0.11018956	          0.01406773	          0.09496824	          0.00999999	          0.00999999	          0.11362329	          0.27557167	          0.01406773	
          1.13877946	         -4.04528777	         -0.25253192	          8.17723323	          1.37125985	          0.84727237	         -0.01191056	         29.11066345	         -1.76459156	         -3.70702257	         -9.53081082	          1.14109699	          0.24647521	        -15.12963952	         -0.41331243	          2.67843245	        -11.65470284	          5.89389547	         31.19719365	        -10.22344728	         -0.68978135	         -1.68259323	          0.13483461	          0.09779990	          0.00999999	          0.09377176	          0.13315878	          0.05850328	          0.10903621	          0.11954134	          0.02114566	          0.00999999	          0.00999999	          0.01186074	          0.00999999	          0.49933656	          0.14431095	          0.00999999	          0.00999999	          0.02276646	          0.02117092	          0.01169173	          0.09290269	          0.01186074	          0.08006934	          0.01000000	          0.00999999	          0.09579772	          0.25304157	          0.01186074	
          1.14994397	         -4.04142702	         -0.19485408	          8.10767685	          1.38706543	          0.84636590	         -0.01133546	         28.79067886	         -1.63022080	         -3.49444110	        -10.84022997	          0.68271978	          0.22758791	        -15.22853508	         -0.45739216	          2.28243127	        -13.33561560	          4.69581691	         32.53064708	        -10.12990733	         -0.32502532	         -1.87279806	          0.14663759	          0.08245675	          0.00999999	          0.14240289	          0.15820228	          0.05356679	          0.09193028	          0.14561228	          0.01782826	          0.00999999	          0.00999999	          0.00999999	          0.00999999	          0.52721637	          0.18055903	          0.00999999	          0.00999999	          0.01919479	          0.02889932	          0.01094160	          0.07832783	          0.00999999	          0.06750782	          0.01000001	          0.01000000	          0.08076868	          0.22326731	          0.00999999	
          1.16110847	         -4.03211316	         -0.12334064	          7.99931267	          1.40269283	          0.84596156	         -0.01067758	         28.54035154	         -1.50606832	         -3.31426252	        -12.30506921	          0.47756063	          0.20670099	        -15.02571112	         -0.47542722	          1.86333961	        -15.51987696	          3.38578369	         33.60048341	        -10.06166985	          0.02439503	         -2.05145423	          0.15423101	          0.06952069	          0.00999999	          0.18399379	          0.18470345	          0.04845937	          0.07750798	          0.17086873	          0.01503131	          0.00999999	          0.02041295	          0.00999999	          0.00999999	          0.52246332	          0.22194510	          0.00999999	          0.00999999	          0.01618345	          0.04910516	          0.01191538	          0.06603952	          0.00999999	          0.05691699	          0.00999999	          0.00999999	          0.06809744	          0.18824046	          0.00999999	
          1.17227298	         -4.01833204	         -0.04183155	          7.85289205	          1.41802786	          0.84619901	         -0.00994982	         28.35633591	         -1.38975907	         -3.16626056	        -13.91066350	          0.59914517	          0.18611062	        -14.44922224	         -0.47186502	          1.40975019	        -18.30702394	          1.97757835	         34.19388439	        -10.02285345	          0.35986381	         -2.21581880	          0.16344938	          0.05861407	          0.00999999	          0.20451003	          0.21003836	          0.04662159	          0.06534829	          0.18336897	          0.01267315	          0.00999999	          0.04009124	          0.00999999	          0.00999999	          0.49046946	          0.24698172	          0.00999999	          0.00999999	          0.01364454	          0.08149904	          0.01266768	          0.05567904	          0.00999999	          0.04798768	          0.00999999	          0.00999999	          0.05741411	          0.15870872	          0.00999999	
